<?xml version="1.0" encoding="UTF-8" standalone="no"?>
<!-- Created with Inkscape (http://www.inkscape.org/) -->

<svg
   xmlns:dc="http://purl.org/dc/elements/1.1/"
   xmlns:cc="http://creativecommons.org/ns#"
   xmlns:rdf="http://www.w3.org/1999/02/22-rdf-syntax-ns#"
   xmlns:svg="http://www.w3.org/2000/svg"
   xmlns="http://www.w3.org/2000/svg"
   xmlns:sodipodi="http://sodipodi.sourceforge.net/DTD/sodipodi-0.dtd"
   xmlns:inkscape="http://www.inkscape.org/namespaces/inkscape"
   width="427"
   height="681"
   id="svg2"
   version="1.1"
   inkscape:version="0.91 r13725"
   sodipodi:docname="eventowl.svg">
  <defs
     id="defs4" />
  <sodipodi:namedview
     id="base"
     pagecolor="#ffffff"
     bordercolor="#666666"
     borderopacity="1.0"
     inkscape:pageopacity="0.0"
     inkscape:pageshadow="2"
     inkscape:zoom="0.7"
     inkscape:cx="257.86312"
     inkscape:cy="447.97454"
     inkscape:document-units="px"
     inkscape:current-layer="layer1"
     showgrid="false"
     inkscape:window-width="1920"
     inkscape:window-height="1056"
     inkscape:window-x="0"
     inkscape:window-y="24"
     inkscape:window-maximized="1"
     units="px" />
  <metadata
     id="metadata7">
    <rdf:RDF>
      <cc:Work
         rdf:about="">
        <dc:format>image/svg+xml</dc:format>
        <dc:type
           rdf:resource="http://purl.org/dc/dcmitype/StillImage" />
        <dc:title></dc:title>
      </cc:Work>
    </rdf:RDF>
  </metadata>
  <g
     inkscape:label="Ebene 1"
     inkscape:groupmode="layer"
     id="layer1"
     transform="translate(0,-371.36225)">
    <path
       style="fill:none;stroke:#000000;stroke-width:1px;stroke-linecap:butt;stroke-linejoin:miter;stroke-opacity:1"
       d="m 164.28571,1048.9336 c 0,0 -337.14285,-389.99999 -25.71428,-482.85713"
       id="path2987"
       inkscape:connector-curvature="0" />
    <ellipse
       style="fill:#000000"
       id="path2989"
       cx="120.71428"
       cy="526.07648"
       rx="100.71429"
       ry="88.571426" />
    <ellipse
       style="fill:#ffffff"
       id="path2993"
       cx="115.00002"
       cy="541.07648"
       rx="23.571428"
       ry="20.714285" />
    <path
       style="fill:none;stroke:#000000;stroke-width:1px;stroke-linecap:butt;stroke-linejoin:miter;stroke-opacity:1"
       d="m 270.16117,1051.382 c 0,0 337.14284,-389.99998 25.71428,-482.85712"
       id="path2987-4"
       inkscape:connector-curvature="0" />
    <ellipse
       transform="scale(-1,1)"
       style="fill:#000000"
       id="path2989-5"
       cx="-313.73257"
       cy="528.52484"
       rx="100.71429"
       ry="88.571426" />
    <ellipse
       transform="scale(-1,1)"
       style="fill:#ffffff"
       id="path2993-6"
       cx="-319.44687"
       cy="543.52484"
       rx="23.571428"
       ry="20.714285" />
    <path
       style="fill:none;stroke:#000000;stroke-width:1px;stroke-linecap:butt;stroke-linejoin:miter;stroke-opacity:1"
       d="m 165.71428,1048.9336 c 105.71429,2.8572 105.71429,2.8572 105.71429,2.8572"
       id="path3067"
       inkscape:connector-curvature="0" />
    <path
       style="fill:#000000"
       d="m 198.80573,1048.7449 -33.48597,-0.9859 -4.74984,-5.5635 C 141.66313,1020.05 107.56245,972.25754 87.50455,939.79362 24.850431,838.38727 -1.369269,752.43324 10.932971,688.77488 16.765251,658.59555 34.3109,628.33728 56.80527,609.66604 l 9.33955,-7.75221 8.07343,3.57567 c 27.01507,11.96478 63.23244,12.60197 89.24147,1.57006 22.7163,-9.63527 40.55787,-25.58829 49.7289,-44.46504 l 3.22507,-6.63818 4.6473,8.69806 c 9.79667,18.33582 24.43496,32.51661 42.65927,41.32605 15.90592,7.68875 25.9658,10.13885 45.06194,10.97495 19.1958,0.84046 32.95909,-1.45372 48.8987,-8.15083 11.5338,-4.84599 10.76938,-5.04019 23.08892,5.86561 21.82333,19.31897 37.53608,48.54859 43.62377,81.15098 3.43754,18.40968 1.83656,52.95846 -3.67479,79.30054 -15.03478,71.86054 -67.47974,169.85567 -138.99924,259.7246 l -12.22151,15.3572 -18.60319,-0.2363 c -10.23174,-0.13 -33.67186,-0.68 -52.08913,-1.2223 l 0,0 z"
       id="path3069"
       inkscape:connector-curvature="0" />
    <path
       style="fill:#ffffff;stroke:#000000;stroke-width:1px;stroke-linecap:butt;stroke-linejoin:miter;stroke-opacity:1"
       d="m 187.14286,624.64789 c 60,1.42858 60,1.42858 60,1.42858 l -24.28572,52.85714 0,0 z"
       id="path3071"
       inkscape:connector-curvature="0" />
    <path
       style="fill:none;stroke:#000000;stroke-width:1px;stroke-linecap:butt;stroke-linejoin:miter;stroke-opacity:1"
       d="M 47.14286,478.93361 2.857141,373.21932 l 109.999999,71.42857 0,0"
       id="path3075"
       inkscape:connector-curvature="0" />
    <path
       style="fill:#000000"
       d="M 25.329811,423.45572 C 15.324351,399.48956 7.446451,379.5725 7.823371,379.19558 c 0.37692,-0.37692 21.30339,12.70084 46.503269,29.06168 l 45.81797,29.74699 -11.7836,3.70982 c -14.89402,4.68907 -24.05029,9.38245 -35.65221,18.27483 l -9.18725,7.04164 -18.191739,-43.57482 0,0 z"
       id="path3077"
       inkscape:connector-curvature="0" />
    <path
       style="fill:#000000"
       d="M 36.81632,448.99783 C 20.075251,408.62025 9.885711,382.84753 10.442791,382.29045 c 0.57706,-0.57706 34.217599,20.56445 70.420329,44.2559 l 17.14286,11.21846 -11.89618,4.01529 c -12.70652,4.2888 -25.53591,11.06147 -35.96097,18.98391 l -6.42857,4.88534 -6.90394,-16.65152 z"
       id="path3079"
       inkscape:connector-curvature="0" />
    <path
       style="fill:#000000"
       d=""
       id="path3081"
       inkscape:connector-curvature="0" />
    <path
       style="fill:#000000"
       d="m 396.68889,452.0943 c 16.74107,-40.37758 26.93061,-66.1503 26.37353,-66.70738 -0.57706,-0.57706 -34.2176,20.56445 -70.42033,44.2559 l -17.14286,11.21846 11.89618,4.01529 c 12.70652,4.2888 25.53591,11.06147 35.96097,18.98391 l 6.42857,4.88534 6.90394,-16.65152 z"
       id="path3079-8"
       inkscape:connector-curvature="0" />
  </g>
</svg>
