<?xml version="1.0" encoding="UTF-8" standalone="no"?>
<!-- Created with Inkscape (http://www.inkscape.org/) -->

<svg
   xmlns:dc="http://purl.org/dc/elements/1.1/"
   xmlns:cc="http://creativecommons.org/ns#"
   xmlns:rdf="http://www.w3.org/1999/02/22-rdf-syntax-ns#"
   xmlns:svg="http://www.w3.org/2000/svg"
   xmlns="http://www.w3.org/2000/svg"
   xmlns:sodipodi="http://sodipodi.sourceforge.net/DTD/sodipodi-0.dtd"
   xmlns:inkscape="http://www.inkscape.org/namespaces/inkscape"
   width="210mm"
   height="297mm"
   id="svg2"
   version="1.1"
   inkscape:version="0.48.4 r9939"
   sodipodi:docname="Neues Dokument 1">
  <defs
     id="defs4" />
  <sodipodi:namedview
     id="base"
     pagecolor="#ffffff"
     bordercolor="#666666"
     borderopacity="1.0"
     inkscape:pageopacity="0.0"
     inkscape:pageshadow="2"
     inkscape:zoom="0.7"
     inkscape:cx="257.86312"
     inkscape:cy="561.87301"
     inkscape:document-units="px"
     inkscape:current-layer="layer1"
     showgrid="false"
     inkscape:window-width="960"
     inkscape:window-height="1028"
     inkscape:window-x="960"
     inkscape:window-y="24"
     inkscape:window-maximized="0" />
  <metadata
     id="metadata7">
    <rdf:RDF>
      <cc:Work
         rdf:about="">
        <dc:format>image/svg+xml</dc:format>
        <dc:type
           rdf:resource="http://purl.org/dc/dcmitype/StillImage" />
        <dc:title></dc:title>
      </cc:Work>
    </rdf:RDF>
  </metadata>
  <g
     inkscape:label="Ebene 1"
     inkscape:groupmode="layer"
     id="layer1">
    <path
       style="fill:none;stroke:#000000;stroke-width:1px;stroke-linecap:butt;stroke-linejoin:miter;stroke-opacity:1"
       d="m 362.85714,898.07647 c 0,0 -337.142854,-390 -25.71428,-482.85714"
       id="path2987"
       inkscape:connector-curvature="0" />
    <path
       sodipodi:type="arc"
       style="fill:#000000"
       id="path2989"
       sodipodi:cx="319.28571"
       sodipodi:cy="375.21933"
       sodipodi:rx="100.71429"
       sodipodi:ry="88.571426"
       d="m 419.99999,375.21933 a 100.71429,88.571426 0 1 1 -201.42857,0 100.71429,88.571426 0 1 1 201.42857,0 z" />
    <path
       sodipodi:type="arc"
       style="fill:#ffffff"
       id="path2993"
       sodipodi:cx="313.57144"
       sodipodi:cy="390.21933"
       sodipodi:rx="23.571428"
       sodipodi:ry="20.714285"
       d="m 337.14287,390.21933 a 23.571428,20.714285 0 1 1 -47.14286,0 23.571428,20.714285 0 1 1 47.14286,0 z" />
    <path
       style="fill:none;stroke:#000000;stroke-width:1px;stroke-linecap:butt;stroke-linejoin:miter;stroke-opacity:1"
       d="m 468.7326,900.52488 c 0,0 337.14284,-390 25.71428,-482.85714"
       id="path2987-4"
       inkscape:connector-curvature="0" />
    <path
       transform="matrix(-1,0,0,1,831.58973,2.4484086)"
       sodipodi:type="arc"
       style="fill:#000000"
       id="path2989-5"
       sodipodi:cx="319.28571"
       sodipodi:cy="375.21933"
       sodipodi:rx="100.71429"
       sodipodi:ry="88.571426"
       d="m 419.99999,375.21933 a 100.71429,88.571426 0 1 1 -201.42857,0 100.71429,88.571426 0 1 1 201.42857,0 z" />
    <path
       transform="matrix(-1,0,0,1,831.58973,2.4484086)"
       sodipodi:type="arc"
       style="fill:#ffffff"
       id="path2993-6"
       sodipodi:cx="313.57144"
       sodipodi:cy="390.21933"
       sodipodi:rx="23.571428"
       sodipodi:ry="20.714285"
       d="m 337.14287,390.21933 a 23.571428,20.714285 0 1 1 -47.14286,0 23.571428,20.714285 0 1 1 47.14286,0 z" />
    <path
       style="fill:none;stroke:#000000;stroke-width:1px;stroke-linecap:butt;stroke-linejoin:miter;stroke-opacity:1"
       d="M 364.28571,898.07647 C 470,900.93361 470,900.93361 470,900.93361"
       id="path3067"
       inkscape:connector-curvature="0" />
    <path
       style="fill:#000000"
       d="m 397.37716,897.8878 -33.48597,-0.98592 -4.74984,-5.5635 C 340.23456,869.19287 306.13388,821.4004 286.07598,788.93648 223.42186,687.53013 197.20216,601.5761 209.5044,537.91774 c 5.83228,-30.17933 23.37793,-60.4376 45.8723,-79.10884 l 9.33955,-7.75221 8.07343,3.57567 c 27.01507,11.96478 63.23244,12.60197 89.24147,1.57006 22.7163,-9.63527 40.55787,-25.58829 49.7289,-44.46504 l 3.22507,-6.63818 4.6473,8.69806 c 9.79667,18.33582 24.43496,32.51661 42.65927,41.32605 15.90592,7.68875 25.9658,10.13885 45.06194,10.97495 19.1958,0.84046 32.95909,-1.45372 48.8987,-8.15083 11.5338,-4.84599 10.76938,-5.04019 23.08892,5.86561 21.82333,19.31897 37.53608,48.54859 43.62377,81.15098 3.43754,18.40968 1.83656,52.95846 -3.67479,79.30054 -15.03478,71.86054 -67.47974,169.85567 -138.99924,259.72461 l -12.22151,15.35714 -18.60319,-0.2363 c -10.23174,-0.13 -33.67186,-0.67995 -52.08913,-1.22221 l 0,0 z"
       id="path3069"
       inkscape:connector-curvature="0" />
    <path
       style="fill:#ffffff;stroke:#000000;stroke-width:1px;stroke-linecap:butt;stroke-linejoin:miter;stroke-opacity:1"
       d="m 385.71429,473.79075 c 60,1.42858 60,1.42858 60,1.42858 l -24.28572,52.85714 0,0 z"
       id="path3071"
       inkscape:connector-curvature="0" />
    <path
       style="fill:none;stroke:#000000;stroke-width:1px;stroke-linecap:butt;stroke-linejoin:miter;stroke-opacity:1"
       d="m 245.71429,328.07647 -44.28572,-105.71429 110,71.42857 0,0"
       id="path3075"
       inkscape:connector-curvature="0" />
    <path
       style="fill:#000000"
       d="m 223.90124,272.59858 c -10.00546,-23.96616 -17.88336,-43.88322 -17.50644,-44.26014 0.37692,-0.37692 21.30339,12.70084 46.50327,29.06168 l 45.81797,29.74699 -11.7836,3.70982 c -14.89402,4.68907 -24.05029,9.38245 -35.65221,18.27483 l -9.18725,7.04164 -18.19174,-43.57482 0,0 z"
       id="path3077"
       inkscape:connector-curvature="0" />
    <path
       style="fill:#000000"
       d="m 235.38775,298.14069 c -16.74107,-40.37758 -26.93061,-66.1503 -26.37353,-66.70738 0.57706,-0.57706 34.2176,20.56445 70.42033,44.2559 l 17.14286,11.21846 -11.89618,4.01529 c -12.70652,4.2888 -25.53591,11.06147 -35.96097,18.98391 l -6.42857,4.88534 -6.90394,-16.65152 z"
       id="path3079"
       inkscape:connector-curvature="0" />
    <path
       style="fill:#000000"
       d=""
       id="path3081"
       inkscape:connector-curvature="0" />
    <path
       style="fill:#000000"
       d="m 595.26032,301.23716 c 16.74107,-40.37758 26.93061,-66.1503 26.37353,-66.70738 -0.57706,-0.57706 -34.2176,20.56445 -70.42033,44.2559 l -17.14286,11.21846 11.89618,4.01529 c 12.70652,4.2888 25.53591,11.06147 35.96097,18.98391 l 6.42857,4.88534 6.90394,-16.65152 z"
       id="path3079-8"
       inkscape:connector-curvature="0" />
  </g>
</svg>
